# xmcd
#
# Track frame offsets:
# 182
# 27505
# 40900
# 51455
# 65540
# 78275
# 94185
# 112512
# 126057
# 141152
#
# Disc length: 2100 seconds
#
# Revision: 1
# Processed by: cddbd v1.5.2PL0 Copyright (c) Steve Scherf et al.
# Submitted via: CedeCatalogueitor 2.6.0.6 http://personales.ya.com/cdcatalogueitor
#
DISCID=8208320a
DTITLE=Juan Pardo - LA CHARANGA
DYEAR=1997
DGENRE=
TTITLE0=La Charanga
TTITLE1=Busca Un Amor
TTITLE2=Canciones
TTITLE3=My Lady
TTITLE4=Leonor
TTITLE5=Cuando Te Enamores
TTITLE6=A Marian Niña
TTITLE7=Mendigo De Amor
TTITLE8=El Poeta
TTITLE9=Mi Rancho
EXTD=
EXTT0=
EXTT1=
EXTT2=
EXTT3=
EXTT4=
EXTT5=
EXTT6=
EXTT7=
EXTT8=
EXTT9=
PLAYORDER=
